<svg width="18" height="17" viewBox="0 0 18 17" fill="none" xmlns="http://www.w3.org/2000/svg">
<path d="M9.00016 12.7916C9.41438 12.7916 9.75016 12.4558 9.75016 12.0416C9.75016 11.6274 9.41438 11.2916 9.00016 11.2916V12.7916ZM3.3335 11.2916C2.91928 11.2916 2.5835 11.6274 2.5835 12.0416C2.5835 12.4558 2.91928 12.7916 3.3335 12.7916L3.3335 11.2916ZM9.00016 4.20829C8.58595 4.20829 8.25016 4.54408 8.25016 4.95829C8.25016 5.37251 8.58595 5.70829 9.00016 5.70829V4.20829ZM14.6668 5.70829C15.081 5.70829 15.4168 5.37251 15.4168 4.95829C15.4168 4.54408 15.081 4.20829 14.6668 4.20829V5.70829ZM9.00016 11.2916L3.3335 11.2916L3.3335 12.7916L9.00016 12.7916V11.2916ZM9.00016 5.70829L14.6668 5.70829V4.20829L9.00016 4.20829V5.70829ZM2.5835 4.95829C2.5835 6.15491 3.55355 7.12496 4.75016 7.12496V5.62496C4.38197 5.62496 4.0835 5.32648 4.0835 4.95829H2.5835ZM4.75016 7.12496C5.94678 7.12496 6.91683 6.15491 6.91683 4.95829H5.41683C5.41683 5.32648 5.11835 5.62496 4.75016 5.62496V7.12496ZM6.91683 4.95829C6.91683 3.76168 5.94678 2.79163 4.75016 2.79163V4.29163C5.11835 4.29163 5.41683 4.5901 5.41683 4.95829H6.91683ZM4.75016 2.79163C3.55355 2.79163 2.5835 3.76168 2.5835 4.95829H4.0835C4.0835 4.5901 4.38197 4.29163 4.75016 4.29163V2.79163ZM15.4168 12.0416C15.4168 10.845 14.4468 9.87496 13.2502 9.87496V11.375C13.6184 11.375 13.9168 11.6734 13.9168 12.0416H15.4168ZM13.2502 9.87496C12.0535 9.87496 11.0835 10.845 11.0835 12.0416H12.5835C12.5835 11.6734 12.882 11.375 13.2502 11.375V9.87496ZM11.0835 12.0416C11.0835 13.2382 12.0535 14.2083 13.2502 14.2083V12.7083C12.882 12.7083 12.5835 12.4098 12.5835 12.0416H11.0835ZM13.2502 14.2083C14.4468 14.2083 15.4168 13.2382 15.4168 12.0416H13.9168C13.9168 12.4098 13.6184 12.7083 13.2502 12.7083V14.2083Z" fill="#2D264B"/>
</svg>
