<svg width="360" height="252" viewBox="0 0 360 252" fill="none" xmlns="http://www.w3.org/2000/svg">
<g filter="url(#filter0_f_164_11)">
<path d="M268.835 104.632C267.725 104.632 266.614 104.673 265.504 104.756C261.761 83.0069 242.884 66.4167 220.1 66.4167C209.695 66.4167 200.112 69.8833 192.381 75.7023C184.032 60.9279 168.239 50.9821 150.143 50.9821C123.329 50.9821 101.614 72.7722 101.614 99.6797C101.614 101.372 101.696 103.064 101.861 104.715C100.75 104.632 99.6399 104.591 98.5295 104.591C71.7149 104.591 50 126.381 50 153.288C50 180.196 71.7149 201.986 98.5295 201.986H268.794C295.609 201.986 317.323 180.196 317.323 153.288C317.323 126.381 295.65 104.632 268.835 104.632Z" fill="url(#paint0_linear_164_11)" fill-opacity="0.3"/>
</g>
<path d="M268.835 97.5064C267.725 97.5064 266.614 97.5476 265.504 97.6302C261.761 75.8813 242.884 59.2911 220.1 59.2911C209.695 59.2911 200.112 62.7577 192.381 68.5767C184.032 53.8023 168.239 43.8564 150.143 43.8564C123.329 43.8564 101.614 65.6466 101.614 92.5541C101.614 94.2461 101.696 95.9381 101.861 97.5889C100.75 97.5064 99.6399 97.4651 98.5295 97.4651C71.7149 97.4651 50 119.255 50 146.163C50 173.07 71.7149 194.86 98.5295 194.86H268.794C295.609 194.86 317.323 173.07 317.323 146.163C317.323 119.255 295.65 97.5064 268.835 97.5064Z" fill="#AAD0E2"/>
<path d="M268.835 97.5064C267.725 97.5064 266.614 97.5476 265.504 97.6302C261.761 75.8813 242.884 59.2911 220.1 59.2911C209.695 59.2911 200.112 62.7577 192.381 68.5767C184.032 53.8023 168.239 43.8564 150.143 43.8564C123.329 43.8564 101.614 65.6466 101.614 92.5541C101.614 94.2461 101.696 95.9381 101.861 97.5889C100.75 97.5064 99.6399 97.4651 98.5295 97.4651C71.7149 97.4651 50 119.255 50 146.163C50 173.07 71.7149 194.86 98.5295 194.86H268.794C295.609 194.86 317.323 173.07 317.323 146.163C317.323 119.255 295.65 97.5064 268.835 97.5064Z" fill="url(#paint1_linear_164_11)"/>
<path d="M169.843 54.6686C165.36 53.2242 160.549 52.4401 155.572 52.4401C129.704 52.4401 108.77 73.4874 108.77 99.4044C108.77 101.055 108.852 102.665 109.017 104.274C107.948 104.192 106.878 104.15 105.809 104.15C79.9403 104.15 59.0068 125.198 59.0068 151.115C59.0068 159.657 61.2688 167.622 65.217 174.514C63.4485 153.302 66.6153 112.858 117.242 113.849C116.749 100.065 119.175 56.6495 169.843 54.6686Z" fill="#9197A0"/>
<path d="M122.013 194.86H268.835C295.65 194.86 317.364 173.07 317.364 146.163C317.364 140.426 316.377 134.896 314.527 129.779C282.653 192.879 174.737 187.308 122.013 194.86Z" fill="#DBDBDB"/>
<path d="M222.609 182.851H211.875V147.153C211.875 131.595 199.249 118.925 183.744 118.925C168.239 118.925 155.613 131.595 155.613 147.153V182.851H144.879V147.153C144.879 125.611 162.317 108.113 183.785 108.113C205.253 108.113 222.691 125.611 222.691 147.153V182.851H222.609Z" fill="url(#paint2_linear_164_11)"/>
<path d="M239.059 236.831C239.059 239.142 237.209 240.999 234.906 240.999H132.5C130.197 240.999 128.346 239.142 128.346 236.831V170.099C128.346 167.788 130.197 165.931 132.5 165.931H234.865C237.168 165.931 239.018 167.788 239.018 170.099V236.831H239.059Z" fill="url(#paint3_linear_164_11)"/>
<path d="M211.833 165.888C211.833 165.888 221.087 154.333 222.239 141.871V165.888H211.833Z" fill="#5C5A5A"/>
<path d="M239.059 236.831V195.933C205.335 224.574 156.683 235.345 129.128 239.266C129.868 240.298 131.102 240.999 132.5 240.999H234.864C237.209 241.041 239.059 239.142 239.059 236.831Z" fill="url(#paint4_linear_164_11)"/>
<path d="M192.833 192.137C192.833 187.061 188.72 182.975 183.703 182.975C178.644 182.975 174.573 187.102 174.573 192.137C174.573 195.149 176.053 197.832 178.274 199.524L175.354 220.282H192.051L189.131 199.524C191.393 197.832 192.833 195.191 192.833 192.137Z" fill="#72716F"/>
<path d="M175.354 220.281C175.354 220.281 188.391 215.288 189.378 201.092L192.093 220.281H175.354Z" fill="#5C5A5A"/>
<defs>
<filter id="filter0_f_164_11" x="0" y="0.982056" width="367.323" height="251.004" filterUnits="userSpaceOnUse" color-interpolation-filters="sRGB">
<feFlood flood-opacity="0" result="BackgroundImageFix"/>
<feBlend mode="normal" in="SourceGraphic" in2="BackgroundImageFix" result="shape"/>
<feGaussianBlur stdDeviation="25" result="effect1_foregroundBlur_164_11"/>
</filter>
<linearGradient id="paint0_linear_164_11" x1="118.326" y1="64.0458" x2="278.668" y2="201.899" gradientUnits="userSpaceOnUse">
<stop stop-color="#E7E8EA"/>
<stop offset="0.0001" stop-color="#0C0B0B"/>
<stop offset="0.9999" stop-color="#5B5953"/>
<stop offset="1" stop-color="#7B7B7B"/>
</linearGradient>
<linearGradient id="paint1_linear_164_11" x1="118.326" y1="56.9202" x2="278.668" y2="194.773" gradientUnits="userSpaceOnUse">
<stop stop-color="#8F959E"/>
<stop offset="1" stop-color="#E7E8EA"/>
</linearGradient>
<linearGradient id="paint2_linear_164_11" x1="183.785" y1="108.113" x2="183.785" y2="182.851" gradientUnits="userSpaceOnUse">
<stop stop-color="#72716F"/>
<stop offset="1" stop-color="#5B5953"/>
</linearGradient>
<linearGradient id="paint3_linear_164_11" x1="140.31" y1="171.525" x2="225.831" y2="236.89" gradientUnits="userSpaceOnUse">
<stop stop-color="#FFEA97"/>
<stop offset="1" stop-color="#EBC428"/>
</linearGradient>
<linearGradient id="paint4_linear_164_11" x1="184.094" y1="195.933" x2="184.094" y2="241" gradientUnits="userSpaceOnUse">
<stop stop-color="#EAB531"/>
<stop offset="1" stop-color="#EAB531" stop-opacity="0"/>
</linearGradient>
</defs>
</svg>
