<svg width="30" height="30" viewBox="0 0 30 30" fill="none" xmlns="http://www.w3.org/2000/svg">
<path d="M2.5 15L1.91435 14.5315L1.53953 15L1.91435 15.4685L2.5 15ZM13.75 15.75C14.1642 15.75 14.5 15.4142 14.5 15C14.5 14.5858 14.1642 14.25 13.75 14.25V15.75ZM6.91435 8.28148L1.91435 14.5315L3.08565 15.4685L8.08565 9.21852L6.91435 8.28148ZM1.91435 15.4685L6.91435 21.7185L8.08565 20.7815L3.08565 14.5315L1.91435 15.4685ZM2.5 15.75H13.75V14.25H2.5V15.75Z" fill="#999999"/>
<path d="M12.5 10.1649V8.38851C12.5 6.77017 12.5 5.961 12.974 5.4015C13.4479 4.84201 14.2461 4.70899 15.8424 4.44293L20.5136 3.6644C23.7567 3.12388 25.3782 2.85363 26.4391 3.75232C27.5 4.65102 27.5 6.29493 27.5 9.58276V20.4172C27.5 23.7051 27.5 25.349 26.4391 26.2477C25.3782 27.1464 23.7567 26.8761 20.5136 26.3356L15.8424 25.5571C14.2461 25.291 13.4479 25.158 12.974 24.5985C12.5 24.039 12.5 23.2298 12.5 21.6115V20.0825" stroke="#999999" stroke-width="1.5"/>
</svg>
