<svg width="30" height="30" viewBox="0 0 30 30" fill="none" xmlns="http://www.w3.org/2000/svg">
<path d="M5.5621 11.4H7.9117L8.2729 22.2H5.2495L5.5621 11.4ZM3.6001 22.8H26.4001V24H28.2001V25.8H29.4001V27H0.600098V25.8H1.8001V24H3.6001V22.8ZM27.6001 8.2872L15.0013 3L2.4001 8.2872V9H27.6001V8.2872ZM4.8001 9.6H25.2001V10.8H4.8001V9.6ZM22.0417 11.4H24.3901L24.7543 22.2H21.7267L22.0417 11.4ZM16.5505 11.4H18.8989L19.2589 22.2H16.2343L16.5505 11.4ZM11.0581 11.4H13.4071L13.7647 22.2H10.7413L11.0581 11.4Z" fill="#999999"/>
</svg>
