<svg width="30" height="30" viewBox="0 0 30 30" fill="none" xmlns="http://www.w3.org/2000/svg">
<path d="M14.9998 1.46484C11.3597 1.46484 8.48451 2.5848 6.48559 4.80586C4.56559 6.93908 3.44311 10.1479 3.35645 14.4727H6.51523C6.52209 13.9018 6.54289 13.2809 6.59844 12.6346C6.58555 12.6206 6.57242 12.6072 6.55977 12.5927C6.10684 12.0749 5.92092 11.312 6.03781 10.2663C6.08703 9.64318 6.40883 9.10031 6.91039 8.88041C7.09514 8.79938 7.28668 8.75561 7.48467 8.73984C7.561 8.5578 7.64327 8.37831 7.73135 8.20166C7.78803 8.0887 7.84758 7.97719 7.90994 7.86727V6.03516H9.38094C10.6614 4.90453 12.4851 4.16016 14.9998 4.16016C17.5146 4.16016 19.3382 4.90453 20.6187 6.03516H22.0897V7.86727C22.1521 7.97719 22.2116 8.0887 22.2683 8.20166C22.3564 8.37831 22.4387 8.5578 22.515 8.73984C22.7129 8.75566 22.9045 8.79938 23.0892 8.88041C23.5907 9.10031 23.9127 9.64318 23.9618 10.2663C24.0787 11.312 23.8928 12.0749 23.4399 12.5927C23.4272 12.6072 23.4141 12.6206 23.4012 12.6346C23.4567 13.2809 23.4775 13.9018 23.4844 14.4727H26.6432C26.5565 10.1479 25.434 6.93908 23.5142 4.80586C21.5152 2.5848 18.64 1.46484 14.9998 1.46484ZM8.96469 7.08984V7.91016H21.035V7.08984H8.96469ZM8.96469 8.96484V12.5977H9.785V11.1389C9.76402 11.0639 9.78471 11.0134 9.785 10.9846V8.96484H8.96469ZM10.8397 8.96484V9.39727C11.0404 9.22148 11.2756 9.06539 11.5471 8.96484H10.8397ZM12.7657 8.96484C12.8766 9.01324 12.9782 9.07547 13.0653 9.15082C13.2902 9.34541 13.411 9.59279 13.4831 9.82096C13.5616 10.07 13.5935 10.3129 13.612 10.5208L13.6251 10.5015L13.9196 10.0642L14.7943 10.6534L14.4996 11.0907L13.8414 12.0676C14.1687 12.2546 14.579 12.3633 14.9998 12.3633C15.4207 12.3633 15.831 12.2546 16.1582 12.0676L15.5001 11.0907L15.2053 10.6534L16.0801 10.0642L16.3746 10.5015L16.3877 10.5208C16.4062 10.3129 16.4381 10.07 16.5166 9.82096C16.5887 9.59279 16.7095 9.34541 16.9344 9.15082C17.0214 9.07547 17.123 9.01324 17.234 8.96484H12.7657H12.7657ZM18.4525 8.96484C18.7241 9.06539 18.9593 9.22148 19.16 9.39727V8.96484H18.4525ZM20.2147 8.96484V10.9846C20.215 11.0134 20.2357 11.0638 20.2147 11.1389V12.5977H21.035V8.96484H20.2147ZM7.6935 9.79705C7.52838 9.79424 7.40598 9.81457 7.33391 9.84615C7.18977 9.90932 7.11717 9.96785 7.08811 10.3523L7.0874 10.3623L7.08623 10.3723C6.9844 11.2645 7.12221 11.634 7.35359 11.8985C7.47711 12.0397 7.67053 12.1656 7.91 12.2927V9.81492C7.83342 9.80613 7.7576 9.79816 7.6935 9.79705ZM22.3062 9.79705C22.2421 9.79816 22.1663 9.80619 22.0897 9.81492V12.2927C22.3292 12.1655 22.5226 12.0398 22.6461 11.8985C22.8775 11.634 23.0152 11.2645 22.9135 10.3723L22.9123 10.3623L22.9116 10.3523C22.8825 9.96785 22.8099 9.90937 22.6658 9.84615C22.5937 9.81451 22.4713 9.79424 22.3062 9.79705ZM12.1895 9.90223C11.8613 9.90357 11.5392 10.1489 11.2756 10.4664L12.5342 10.4795C12.5197 10.3526 12.5055 10.2275 12.4773 10.1383C12.4424 10.0276 12.4023 9.97166 12.3753 9.94822C12.3482 9.92478 12.3249 9.9017 12.1895 9.90223ZM17.8102 9.90223C17.6748 9.90164 17.6515 9.92478 17.6244 9.94822C17.5974 9.97166 17.5573 10.0276 17.5224 10.1383C17.4942 10.2275 17.48 10.3526 17.4655 10.4795L18.7241 10.4664C18.4605 10.1488 18.1384 9.90357 17.8102 9.90223ZM10.8397 11.5165V13.6523H9.08188L11.5663 15.5156C13.5973 17.0389 16.6465 16.8558 18.4334 15.5156L20.9178 13.6523H19.16V11.5165L17.0731 11.5382L17.5548 12.2532L17.2477 12.5603C16.6547 13.1534 15.8202 13.418 14.9998 13.418C14.1795 13.418 13.345 13.1534 12.752 12.5603L12.4449 12.2532L12.9266 11.538L10.8397 11.5165ZM11.2498 13.8868H18.7498V14.9413H11.2498V13.8868ZM7.85275 14.0489L7.09402 17.843L7.43814 21.9728H14.4726V19.9059L13.9582 19.3915L12.3119 20.2147H9.78512V16.6566L10.4471 15.9946L7.85275 14.0489ZM22.1469 14.0489L19.5526 15.9946L20.2145 16.6566V20.2147H17.6878L16.0414 19.3915L15.527 19.9059V21.9728H22.5615L22.9056 17.843L22.1468 14.0489H22.1469ZM18.687 16.6202C16.6024 17.946 13.593 18.0854 11.3115 16.6215L10.8396 17.0934V19.1603H12.0628L14.1665 18.1085L14.9998 18.9419L15.8332 18.1085L17.9369 19.1603H19.1601V17.0934L18.687 16.6202H18.687ZM7.52604 23.0272L7.98506 28.5353H12.5976V25.4723L10.9677 23.0272H7.52604ZM12.235 23.0272L13.407 24.7853H16.5927L17.7647 23.0272H12.235ZM19.032 23.0272L17.4021 25.4723V28.5353H22.0146L22.4737 23.0272H19.032ZM13.6521 25.8397V28.5353H16.3476V25.8397H13.6521Z" fill="#999999"/>
</svg>
